<svg 
 xmlns="http://www.w3.org/2000/svg"
 xmlns:xlink="http://www.w3.org/1999/xlink"
 width="796px" height="647px">
<path fill-rule="evenodd"  fill="rgb(147, 0, 180)"
 d="M0.999,3.999 C19.19,-11.992 246.707,33.586 345.999,74.0 C349.600,81.977 355.772,102.465 355.999,121.0 C356.269,142.910 350.261,162.602 351.0,163.0 C352.333,163.511 355.638,156.657 361.999,141.0 C367.776,126.783 373.173,94.880 373.999,86.0 C387.393,92.361 459.416,120.290 511.999,150.999 C548.341,172.224 581.474,207.357 575.999,238.0 C568.57,282.461 526.999,309.0 526.999,309.0 L789.999,573.0 L789.603,592.848 L514.999,322.999 C514.999,322.999 393.290,220.381 321.0,171.0 C259.54,128.685 12.842,5.614 12.0,8.999 C11.73,12.722 249.899,140.964 312.0,184.999 C388.930,239.550 501.999,335.999 501.999,335.999 L789.0,622.999 L795.999,633.0 L783.999,646.999 L703.0,646.999 L682.999,625.999 L682.0,595.0 L666.0,578.0 L637.999,578.0 L615.999,555.999 L624.0,523.0 L600.999,499.999 L588.999,503.0 L563.0,475.999 L562.0,454.999 L547.999,440.999 L493.999,444.999 L443.999,393.999 C443.999,393.999 412.971,414.185 382.999,410.999 C354.452,407.966 324.291,389.875 293.101,363.276 C327.198,340.263 361.248,274.927 358.0,272.0 C354.440,268.792 319.887,327.719 281.0,352.999 C234.120,308.531 176.931,240.304 128.0,185.999 C145.990,167.48 175.743,135.536 171.0,133.999 C167.973,133.19 137.145,165.577 118.0,175.0 C57.842,108.106 -8.720,18.947 0.999,3.999 Z"/>
</svg>